<svg width="17" height="21" viewBox="0 0 17 21" fill="none" xmlns="http://www.w3.org/2000/svg">
<path d="M13.6023 11.1214C13.6304 14.1481 16.2574 15.1553 16.2865 15.1681C16.2643 15.2391 15.8668 16.6034 14.9025 18.0126C14.0688 19.231 13.2037 20.4449 11.8408 20.47C10.5017 20.4947 10.071 19.6759 8.54 19.6759C7.00942 19.6759 6.53098 20.4449 5.26331 20.4947C3.94779 20.5445 2.94599 19.1773 2.10551 17.9634C0.38801 15.4803 -0.924515 10.9469 0.837875 7.8867C1.71339 6.36701 3.27801 5.40468 4.97626 5.38C6.26807 5.35536 7.48735 6.24909 8.27709 6.24909C9.06633 6.24909 10.548 5.1743 12.1057 5.33215C12.7578 5.35929 14.5883 5.59556 15.7637 7.31602C15.669 7.37473 13.5795 8.59108 13.6023 11.1214ZM11.0854 3.6894C11.7839 2.84399 12.2539 1.6671 12.1257 0.496109C11.119 0.536571 9.90163 1.16696 9.17953 2.0119C8.53239 2.76014 7.96564 3.95774 8.11856 5.10556C9.24067 5.19237 10.387 4.53534 11.0854 3.6894Z" fill="black"/>
</svg>
