<svg width="18" height="13" viewBox="0 0 18 13" fill="none" xmlns="http://www.w3.org/2000/svg">
<path d="M0 0.016098V0.376098V12.9761H18V0.016098H0ZM0.72 0.736098H17.28V1.6586C17.1197 1.79794 10.7341 7.34978 10.2045 7.80883C9.73934 8.21194 9.24416 8.2968 9 8.2968C8.75584 8.2968 8.26067 8.21194 7.79555 7.80883C7.66201 7.6931 6.70416 6.8603 6.01172 6.25844L6.00469 6.2493L6.00328 6.25071C3.9472 4.46361 0.839666 1.76264 0.72 1.6586V0.736098ZM0.72 2.60993C1.34906 3.15694 3.54286 5.06416 5.42953 6.70422L0.72 10.4252V2.60993ZM17.28 2.60993V10.4266L12.5606 6.71266C14.4463 5.07346 16.6496 3.15808 17.28 2.60993ZM5.98219 7.18516C6.42706 7.57182 7.22261 8.26338 7.32445 8.35165C7.93934 8.88454 8.59616 9.0154 9 9.0154C9.40384 9.0154 10.0607 8.88454 10.6755 8.35165C10.7766 8.26405 11.5677 7.57562 12.0073 7.1936L17.28 11.3434V12.2561H0.72V11.3434L5.98219 7.18516Z" fill="black"/>
</svg>
