<svg width="20" height="21" viewBox="0 0 20 21" fill="none" xmlns="http://www.w3.org/2000/svg">
<g clip-path="url(#clip0)">
<path d="M10.0001 20.4962C15.5229 20.4962 20.0001 16.019 20.0001 10.4962C20.0001 4.9733 15.5229 0.496132 10.0001 0.496132C4.4772 0.496132 3.05176e-05 4.9733 3.05176e-05 10.4962C3.05176e-05 16.019 4.4772 20.4962 10.0001 20.4962Z" fill="#3877EA"/>
<path d="M13.2515 3.56557H11.0363C9.72174 3.56557 8.25956 4.11847 8.25956 6.02404C8.26597 6.68802 8.25956 7.32391 8.25956 8.03957H6.73877V10.4596H8.30662V17.4266H11.1876V10.4137H13.0892L13.2612 8.03277H11.138C11.138 8.03277 11.1427 6.97366 11.138 6.66608C11.138 5.91304 11.9215 5.95617 11.9687 5.95617C12.3415 5.95617 13.0665 5.95725 13.2526 5.95617V3.56557H13.2515Z" fill="white"/>
</g>
<defs>
<clipPath id="clip0">
<rect width="20" height="20" fill="white" transform="translate(0 0.496094)"/>
</clipPath>
</defs>
</svg>
