<svg width="20" height="21" viewBox="0 0 20 21" fill="none" xmlns="http://www.w3.org/2000/svg">
<g clip-path="url(#clip0)">
<path d="M19.5337 10.6832C19.5337 9.86379 19.4672 9.26585 19.3233 8.64578H9.96666V12.3441H15.4588C15.3481 13.2632 14.7502 14.6473 13.4214 15.5773L13.4028 15.7012L16.3612 17.993L16.5661 18.0134C18.4485 16.275 19.5337 13.7171 19.5337 10.6832Z" fill="#4285F4"/>
<path d="M9.96678 20.4275C12.6575 20.4275 14.9164 19.5416 16.5663 18.0136L13.4215 15.5774C12.58 16.1643 11.4505 16.574 9.96678 16.574C7.33142 16.574 5.09468 14.8356 4.29735 12.4327L4.18048 12.4427L1.10427 14.8234L1.06404 14.9352C2.70283 18.1907 6.06904 20.4275 9.96678 20.4275Z" fill="#34A853"/>
<path d="M4.29727 12.4327C4.08688 11.8127 3.96513 11.1482 3.96513 10.4617C3.96513 9.77518 4.08688 9.11083 4.2862 8.49075L4.28063 8.35869L1.16589 5.93976L1.06398 5.98823C0.388564 7.33915 0.00100708 8.85617 0.00100708 10.4617C0.00100708 12.0673 0.388564 13.5843 1.06398 14.9352L4.29727 12.4327Z" fill="#FBBC05"/>
<path d="M9.96671 4.34948C11.838 4.34948 13.1003 5.1578 13.8201 5.8333L16.6326 3.08719C14.9053 1.48162 12.6574 0.496124 9.96671 0.496124C6.069 0.496124 2.70282 2.73284 1.06404 5.98826L4.28626 8.49078C5.09465 6.08796 7.33137 4.34948 9.96671 4.34948Z" fill="#EB4335"/>
</g>
<defs>
<clipPath id="clip0">
<rect width="19.544" height="20" fill="white" transform="translate(0 0.496094)"/>
</clipPath>
</defs>
</svg>
