<svg width="12" height="12" viewBox="0 0 12 12" fill="none" xmlns="http://www.w3.org/2000/svg">
<path d="M5.99992 10.6666C8.57725 10.6666 10.6666 8.57731 10.6666 5.99998C10.6666 3.42265 8.57725 1.33331 5.99992 1.33331C3.42259 1.33331 1.33325 3.42265 1.33325 5.99998C1.33325 8.57731 3.42259 10.6666 5.99992 10.6666Z" stroke="#28293D" stroke-width="0.8" stroke-miterlimit="10"/>
<path d="M6 10.6666C7.10457 10.6666 8 8.57731 8 5.99998C8 3.42265 7.10457 1.33331 6 1.33331C4.89543 1.33331 4 3.42265 4 5.99998C4 8.57731 4.89543 10.6666 6 10.6666Z" stroke="#28293D" stroke-width="0.8" stroke-miterlimit="10"/>
<path d="M1.33325 4.66669L10.6666 4.66669" stroke="#28293D" stroke-width="0.8" stroke-miterlimit="10"/>
<path d="M1.33325 7.33331L10.6666 7.33331" stroke="#28293D" stroke-width="0.8" stroke-miterlimit="10"/>
</svg>
