<svg width="24" height="24" viewBox="0 0 24 24" fill="none" xmlns="http://www.w3.org/2000/svg">
<path d="M16.9507 2.0003C13.7662 2.0003 12.0007 4.27811 12.0007 4.27811C12.0007 4.27811 10.2352 2.0003 7.05073 2.0003C3.70783 2.0003 1.00073 4.68245 1.00073 7.99453C1.00073 12.5414 6.40173 16.9477 7.90983 18.3351C9.64563 19.9405 12.0007 22.0003 12.0007 22.0003C12.0007 22.0003 14.3558 19.9394 16.0916 18.3351C17.5997 16.9477 23.0007 12.5414 23.0007 7.99453C23.0007 4.68245 20.2936 2.0003 16.9507 2.0003ZM15.095 16.2873C14.897 16.4616 14.7298 16.6153 14.5923 16.7428C13.7673 17.5046 12.7872 18.3776 12.0018 19.0806C11.2142 18.3776 10.2352 17.5057 9.41023 16.7428C9.27273 16.6153 9.10113 16.4627 8.90753 16.2873C7.34773 14.8912 3.20183 11.1747 3.20183 7.99453C3.20183 5.8911 4.92883 4.18002 7.05183 4.18002C9.06263 4.18002 10.2275 5.56741 10.2572 5.60665L12.0018 7.4496L13.7464 5.60665C13.7596 5.59357 14.941 4.18002 16.9518 4.18002C19.0748 4.18002 20.8018 5.8911 20.8018 7.99453C20.8007 11.1747 16.6548 14.8912 15.095 16.2873Z" fill="#8F90A6"/>
</svg>
