<svg width="20" height="20" viewBox="0 0 20 20" fill="none" xmlns="http://www.w3.org/2000/svg">
<path d="M10.1358 4.192C7.87981 4.192 6.21581 5.552 6.21581 7.632H7.67181C7.71981 6.656 8.32781 5.408 10.1038 5.408C11.3358 5.408 12.2318 6.048 12.2318 7.072C12.2318 8.112 11.5758 8.752 10.7438 9.28C9.39981 10.144 8.75981 10.72 8.75981 12.064V12.608H10.2478V12.112C10.2478 11.232 10.5998 10.944 11.5918 10.304C12.6798 9.616 13.7518 8.544 13.7518 7.008C13.7518 5.072 11.9438 4.192 10.1358 4.192ZM10.4558 16V14.16H8.61581V16H10.4558Z" fill="black"/>
<rect x="0.5" y="0.5" width="19" height="19" rx="9.5" stroke="black"/>
</svg>
