<svg width="19" height="20" viewBox="0 0 19 20" fill="none" xmlns="http://www.w3.org/2000/svg">
<path d="M6.23704 12.1072L7.07726 11.7464L6.32012 11.2337C4.75715 10.1754 3.72727 8.38115 3.72727 6.36364C3.72727 3.13481 6.36208 0.5 9.59091 0.5C12.8197 0.5 15.4545 3.13481 15.4545 6.36364C15.4545 8.38115 14.4247 10.1754 12.8617 11.2337L12.1046 11.7464L12.9448 12.1072C15.867 13.3618 17.9737 16.1819 18.1673 19.5H17.3479C17.205 17.2453 16.1032 15.2534 14.449 13.928L14.1138 13.6594L13.7978 13.9503L9.87732 17.5582L9.87727 17.5582L9.87067 17.5645L9.59091 17.8315L9.31115 17.5645L9.31121 17.5644L9.3045 17.5582L5.38404 13.9503L5.06799 13.6594L4.7328 13.928C3.07864 15.2534 1.97678 17.2453 1.83397 19.5H1.01455C1.20809 16.1819 3.31479 13.3618 6.23704 12.1072ZM12.858 13.6896L13.4142 13.1711L12.7177 12.8659C11.7603 12.4463 10.6973 12.2273 9.59091 12.2273C8.48451 12.2273 7.42153 12.4463 6.46408 12.8659L5.76758 13.1711L6.32387 13.6896L9.25 16.4169L9.59091 16.7346L9.93182 16.4169L12.858 13.6896ZM14.6364 6.36364C14.6364 3.56619 12.3884 1.31818 9.59091 1.31818C6.79346 1.31818 4.54545 3.56619 4.54545 6.36364C4.54545 9.16109 6.79346 11.4091 9.59091 11.4091C12.3884 11.4091 14.6364 9.16109 14.6364 6.36364Z" fill="#FF7D5A" stroke="#FF7D5A"/>
</svg>
