<svg width="18" height="12" viewBox="0 0 18 12" fill="none" xmlns="http://www.w3.org/2000/svg">
<path fill-rule="evenodd" clip-rule="evenodd" d="M17.1599 11.1899L14.7599 11.2274C14.7599 11.2274 14.2424 11.3324 13.5674 10.8524C12.6674 10.2224 11.8199 8.57993 11.1599 8.79743C10.4924 9.01493 10.5149 10.4924 10.5149 10.4924C10.5149 10.4924 10.5224 10.8074 10.3649 10.9724C10.1999 11.1599 9.8774 11.1899 9.8774 11.1899H8.8049C8.8049 11.1899 6.4349 11.3399 4.3499 9.11243C2.0624 6.68993 0.0523994 1.88243 0.0523994 1.88243C0.0523994 1.88243 -0.0676006 1.56743 0.0598994 1.40993C0.202399 1.24493 0.584899 1.22993 0.584899 1.22993L3.1574 1.21493C3.1574 1.21493 3.3974 1.25993 3.5699 1.38743C3.7124 1.49243 3.7949 1.69493 3.7949 1.69493C3.7949 1.69493 4.2074 2.76743 4.7624 3.74243C5.8349 5.63993 6.3374 6.05243 6.6974 5.84993C7.2299 5.54993 7.0724 3.17243 7.0724 3.17243C7.0724 3.17243 7.0799 2.30993 6.8024 1.91993C6.5849 1.61993 6.1799 1.52993 6.0074 1.50743C5.8649 1.48493 6.0974 1.13993 6.4049 0.989928C6.8699 0.757428 7.6874 0.742428 8.6474 0.757428C9.3974 0.764928 9.6149 0.809928 9.9074 0.884928C10.7924 1.10243 10.4924 1.94993 10.4924 3.97493C10.4924 4.62743 10.3799 5.53493 10.8374 5.84243C11.0324 5.96993 11.5199 5.86493 12.7199 3.77243C13.2899 2.78243 13.7174 1.61993 13.7174 1.61993C13.7174 1.61993 13.8149 1.40993 13.9574 1.31993C14.1074 1.22993 14.3024 1.25243 14.3024 1.25243L17.0099 1.23743C17.0099 1.23743 17.8199 1.13993 17.9549 1.51493C18.0974 1.90493 17.6549 2.82743 16.5449 4.33493C14.7299 6.80993 14.5274 6.57743 16.0349 8.00243C17.4749 9.36743 17.7674 10.0349 17.8199 10.1174C18.4199 11.1299 17.1599 11.2049 17.1599 11.2049V11.1899Z" fill="#28293D"/>
</svg>
